<svg id="Capa_1" enable-background="new 0 0 512 512" height="512" viewBox="0 0 512 512" width="512" xmlns="http://www.w3.org/2000/svg"><g><path d="m412 285c-1.231 0-2.456.03-3.677.075l-18.213-96.071h10.89c8.284 0 15-6.716 15-15s-6.716-15-15-15h-60.411l-32.275-27.083-18.662-15.66c2.618.476 5.31.738 8.064.738 24.813 0 45-20.187 45-45s-20.187-45-45-45-45 20.187-45 45c0 6.626 1.451 12.916 4.034 18.585-18.037-8.507-40.269-4.207-53.677 11.771l-38.567 45.963c-25.937 30.911-26.037 75.015-2.658 105.913l-23.36 38.475c-11.854-4.96-24.856-7.706-38.488-7.706-55.14 0-100 44.859-100 100s44.86 100 100 100c50.043 0 91.616-36.95 98.875-85h37.125v10c0 8.284 6.716 15 15 15s15-6.716 15-15v-20.803l78.441-129.197h28.595l5.812 30.656c-38.895 13.707-66.848 50.819-66.848 94.344 0 55.141 44.859 100 100 100s100-44.859 100-100-44.859-100-100-100zm-312 170c-38.598 0-70-31.402-70-70s31.402-70 70-70c7.928 0 15.544 1.344 22.655 3.784l-35.477 58.432c-2.812 4.631-2.908 10.419-.25 15.141s7.654 7.643 13.072 7.643h68.365c-6.888 31.411-34.916 55-68.365 55zm26.655-85 21.623-35.615c9.907 9.454 17.051 21.77 20.086 35.615zm109.345 0h-37.125c-3.723-24.646-16.477-46.368-34.768-61.685l19.858-32.708 52.035 43.663zm30-38.609v-19.116h-.007c0-1.709-.284-3.438-.892-5.114l-17.103-47.161h61.347zm-23.689-101.391c.957-3.257 2.566-6.336 4.81-9.01l49.858-59.419 28.51 23.923c2.811 2.358 6.231 3.51 9.634 3.51h.008 24.447l7.771 40.996zm169.689 225c-38.598 0-70-31.402-70-70 0-28.851 17.548-53.676 42.529-64.377l12.734 67.171c1.364 7.195 7.656 12.209 14.721 12.209.927 0 1.866-.087 2.811-.266 8.14-1.543 13.486-9.392 11.943-17.531l-12.731-67.155c37.67 1.068 67.993 32.024 67.993 69.949 0 38.598-31.402 70-70 70z"/></g></svg>